<svg width="133" height="32" viewBox="0 0 133 32" fill="none" xmlns="http://www.w3.org/2000/svg">
<g clip-path="url(#clip0_2_15)">
<path d="M20 4C13.3748 4 8 9.3724 8 15.9988C8 20.4168 11.582 23.9988 16 23.9988C20.418 23.9988 23.9988 20.4168 24 15.9988C24 13.056 21.6132 10.6664 18.6668 10.6664C15.7216 10.6664 13.3332 13.056 13.3332 15.9996C13.3332 17.4736 14.5272 18.6664 16 18.6664C17.4728 18.6664 18.6668 17.4736 18.6668 15.9996H16C16 14.5256 17.194 13.3328 18.6668 13.3328C20.1396 13.3328 21.3332 14.5256 21.3332 15.9996C21.3332 18.946 18.9452 21.3328 16 21.3328C13.0548 21.3328 10.6668 18.9464 10.6668 16C10.6668 11.5832 14.2488 8 18.6668 8C23.086 8 26.6652 11.582 26.6668 15.9988V15.9972V16V15.9988C26.6652 21.8896 21.8908 26.6652 16 26.6652C10.1092 26.6652 5.3332 21.8896 5.3332 15.9988V16V15.9972V15.9988C5.3332 7.8996 11.9012 1.3332 20 1.3332C21.0496 1.3332 22.0716 1.4476 23.0584 1.6576C20.9268 0.6068 18.5364 0 16 0C7.164 0 0 7.164 0 16C0 24.836 7.164 32 16 32C24.836 32 32 24.836 32 16C32 15.586 31.9688 15.1796 31.9376 14.7736C31.3232 8.7228 26.2136 4 20 4Z" fill="#F43F5E"/>
</g>
<path d="M46.7402 22H44.3672V7H46.7402V22ZM48.8887 16.6191C48.8887 15.584 49.0938 14.653 49.5039 13.8262C49.9141 12.9928 50.4902 12.3548 51.2324 11.9121C51.9746 11.4629 52.8275 11.2383 53.791 11.2383C55.2168 11.2383 56.3724 11.6973 57.2578 12.6152C58.1497 13.5332 58.6315 14.7507 58.7031 16.2676L58.7129 16.8242C58.7129 17.8659 58.5111 18.7969 58.1074 19.6172C57.7103 20.4375 57.1374 21.0723 56.3887 21.5215C55.6465 21.9707 54.7871 22.1953 53.8105 22.1953C52.3197 22.1953 51.125 21.7005 50.2266 20.7109C49.3346 19.7148 48.8887 18.39 48.8887 16.7363V16.6191ZM51.2617 16.8242C51.2617 17.9115 51.4863 18.7643 51.9355 19.3828C52.3848 19.9948 53.0098 20.3008 53.8105 20.3008C54.6113 20.3008 55.2331 19.9883 55.6758 19.3633C56.125 18.7383 56.3496 17.8236 56.3496 16.6191C56.3496 15.5514 56.1185 14.7051 55.6562 14.0801C55.2005 13.4551 54.5788 13.1426 53.791 13.1426C53.0163 13.1426 52.401 13.4518 51.9453 14.0703C51.4896 14.6823 51.2617 15.6003 51.2617 16.8242ZM60.3047 16.6387C60.3047 14.998 60.6888 13.6895 61.457 12.7129C62.2318 11.7298 63.2572 11.2383 64.5332 11.2383C65.7376 11.2383 66.6849 11.6582 67.375 12.498L67.4824 11.4336H69.6211V21.6777C69.6211 23.0645 69.1882 24.1582 68.3223 24.959C67.4629 25.7598 66.3008 26.1602 64.8359 26.1602C64.0612 26.1602 63.3027 25.9974 62.5605 25.6719C61.8249 25.3529 61.265 24.9329 60.8809 24.4121L62.0039 22.9863C62.7331 23.8522 63.6315 24.2852 64.6992 24.2852C65.487 24.2852 66.1087 24.0703 66.5645 23.6406C67.0202 23.2174 67.248 22.5924 67.248 21.7656V21.0527C66.5645 21.8145 65.653 22.1953 64.5137 22.1953C63.2767 22.1953 62.2643 21.7038 61.4766 20.7207C60.6953 19.7376 60.3047 18.377 60.3047 16.6387ZM62.668 16.8438C62.668 17.9049 62.8828 18.7415 63.3125 19.3535C63.7487 19.959 64.3509 20.2617 65.1191 20.2617C66.0762 20.2617 66.7858 19.8516 67.248 19.0312V14.3828C66.7988 13.582 66.0957 13.1816 65.1387 13.1816C64.3574 13.1816 63.7487 13.4909 63.3125 14.1094C62.8828 14.7279 62.668 15.6393 62.668 16.8438ZM74.5918 22H72.2188V11.4336H74.5918V22ZM72.0723 8.68945C72.0723 8.32487 72.1862 8.02214 72.4141 7.78125C72.6484 7.54036 72.9805 7.41992 73.4102 7.41992C73.8398 7.41992 74.1719 7.54036 74.4062 7.78125C74.6406 8.02214 74.7578 8.32487 74.7578 8.68945C74.7578 9.04753 74.6406 9.34701 74.4062 9.58789C74.1719 9.82227 73.8398 9.93945 73.4102 9.93945C72.9805 9.93945 72.6484 9.82227 72.4141 9.58789C72.1862 9.34701 72.0723 9.04753 72.0723 8.68945ZM79.3867 11.4336L79.4551 12.6543C80.2363 11.7103 81.2617 11.2383 82.5312 11.2383C84.7318 11.2383 85.8516 12.498 85.8906 15.0176V22H83.5176V15.1543C83.5176 14.4837 83.3711 13.9889 83.0781 13.6699C82.7917 13.3444 82.3197 13.1816 81.6621 13.1816C80.7051 13.1816 79.9922 13.6146 79.5234 14.4805V22H77.1504V11.4336H79.3867ZM96.0859 23.8652H87.1309V22H96.0859V23.8652ZM106.623 18.7285L108.303 11.4336H110.617L107.736 22H105.783L103.518 14.7441L101.291 22H99.3379L96.4473 11.4336H98.7617L100.471 18.6504L102.639 11.4336H104.426L106.623 18.7285ZM114.729 22H112.355V11.4336H114.729V22ZM112.209 8.68945C112.209 8.32487 112.323 8.02214 112.551 7.78125C112.785 7.54036 113.117 7.41992 113.547 7.41992C113.977 7.41992 114.309 7.54036 114.543 7.78125C114.777 8.02214 114.895 8.32487 114.895 8.68945C114.895 9.04753 114.777 9.34701 114.543 9.58789C114.309 9.82227 113.977 9.93945 113.547 9.93945C113.117 9.93945 112.785 9.82227 112.551 9.58789C112.323 9.34701 112.209 9.04753 112.209 8.68945ZM120.295 8.86523V11.4336H122.16V13.1914H120.295V19.0898C120.295 19.4935 120.373 19.7865 120.529 19.9688C120.692 20.1445 120.979 20.2324 121.389 20.2324C121.662 20.2324 121.939 20.1999 122.219 20.1348V21.9707C121.678 22.1204 121.158 22.1953 120.656 22.1953C118.833 22.1953 117.922 21.1895 117.922 19.1777V13.1914H116.184V11.4336H117.922V8.86523H120.295ZM126.32 12.5859C127.095 11.6875 128.075 11.2383 129.26 11.2383C131.512 11.2383 132.655 12.5241 132.688 15.0957V22H130.314V15.1836C130.314 14.4544 130.155 13.9401 129.836 13.6406C129.523 13.3346 129.061 13.1816 128.449 13.1816C127.499 13.1816 126.789 13.6048 126.32 14.4512V22H123.947V7H126.32V12.5859Z" fill="#666666"/>
<defs>
<clipPath id="clip0_2_15">
<rect width="32" height="32" fill="white"/>
</clipPath>
</defs>
</svg>
